#!OML:ASF H:\ManfredETheater\Project 1\Capture day 1\Session 1\subject.ASF
:FULLY-SPECIFIED
:DEGREES
131
root -17.1824 15.3384 -22.3322 -217.538 -65.0287 -139.82
lowerback 18.6928 -0.419318 6.92912
upperback 0.496218 1.22894 6.94856
thorax -10.0107 0.267166 3.41393
lowerneck -17.6227 -4.29456 -4.47912
upperneck 17.3473 -4.92461 0.670058
head 8.43379 -2.58281 0.342713
rclavicle 6.68413e-015 -8.74653e-015
rhumerus -39.7978 -0.539344 -63.8002
rradius 64.9223
rwrist -7.32231
rhand -31.8473 7.12409
rfingers 7.12502
rthumb -5.10124 -22.7945
lclavicle 6.68413e-015 -8.74653e-015
lhumerus -50.0658 -5.88507 97.4191
lradius 85.9526
lwrist 2.28931
lhand -21.7196 -16.9545
lfingers 7.12502
lthumb 4.67955 12.9738
rfemur -31.0638 -16.4636 23.2189
rtibia 70.7948
rfoot -18.8695 -17.8239
rtoes -46.052
lfemur -44.5222 -1.55735 -12.3273
ltibia 104.178
lfoot -20.5611 -6.48352
ltoes -4.79624
132
root -17.5008 15.3712 -22.5788 -217.906 -65.0441 -139.308
lowerback 18.62 -0.266775 7.27615
upperback 0.480495 1.49447 6.88392
thorax -9.97891 0.375495 3.07256
lowerneck -17.7731 -4.5006 -4.71248
upperneck 17.1893 -5.18411 0.942411
head 8.42792 -2.68704 0.43732
rclavicle 1.60022e-014 -1.03368e-014
rhumerus -39.1849 -0.210524 -63.8054
rradius 66.8916
rwrist -7.68236
rhand -31.8686 7.65002
rfingers 7.12502
rthumb -5.12183 -22.2681
lclavicle 1.60022e-014 -1.03368e-014
lhumerus -51.0987 -6.52262 97.2589
lradius 86.669
lwrist 0.235995
lhand -21.5995 -17.0955
lfingers 7.12502
lthumb 4.79548 12.8303
rfemur -29.7943 -16.3481 23.4379
rtibia 71.3203
rfoot -18.8811 -18.0072
rtoes -47.1499
lfemur -47.6906 -1.90293 -13.3987
ltibia 101.028
lfoot -20.6439 -5.93225
ltoes -5.00802
133
root -17.8258 15.4185 -22.8202 -218.016 -65.0974 -139.064
lowerback 18.5097 -0.0948995 7.50171
upperback 0.473849 1.75432 6.78706
thorax -9.91413 0.488712 2.76503
lowerneck -17.8754 -4.71608 -4.93097
upperneck 16.9415 -5.4564 1.19789
head 8.38398 -2.79768 0.523842
rclavicle -1.51325e-014 -6.34123e-014
rhumerus -38.7096 0.172142 -63.775
rradius 69.0229
rwrist -7.83884
rhand -31.8302 8.21533
rfingers 7.12502
rthumb -5.08478 -21.7037
lclavicle -1.51325e-014 -6.34123e-014
lhumerus -52.0584 -7.00834 97.0018
lradius 87.3952
lwrist -1.24962
lhand -21.5235 -17.0987
lfingers 7.12502
lthumb 4.86889 12.8254
rfemur -28.6299 -16.1859 23.5077
rtibia 71.8939
rfoot -18.4702 -17.8783
rtoes -48.0959
lfemur -50.3889 -2.36714 -14.4159
ltibia 97.2231
lfoot -20.4907 -5.49853
ltoes -5.05625
134
root -18.1574 15.4822 -23.0563 -217.933 -65.1498 -139.077
lowerback 18.4118 0.0903762 7.6283
upperback 0.49296 2.00881 6.67011
thorax -9.82674 0.605256 2.49279
lowerneck -17.9412 -4.92534 -5.1362
upperneck 16.6435 -5.7189 1.42979
head 8.31667 -2.90557 0.602572
rclavicle 2.50717e-014 -3.97569e-015
rhumerus -38.3285 0.601612 -63.7049
rradius 71.2074
rwrist -7.74318
rhand -31.7374 8.84385
rfingers 7.12502
rthumb -4.99515 -21.0773
lclavicle 2.50717e-014 -3.97569e-015
lhumerus -52.9225 -7.31439 96.6686
lradius 88.0966
lwrist -1.94783
lhand -21.4414 -16.9647
lfingers 7.12502
lthumb 4.94817 12.9575
rfemur -27.5138 -15.9727 23.4359
rtibia 72.4976
rfoot -17.6003 -17.4012
rtoes -48.8674
lfemur -52.4985 -2.86438 -15.325
ltibia 92.796
lfoot -20.0346 -5.25188
ltoes -4.88732
135
root -18.495 15.5582 -23.287 -217.749 -65.1663 -139.302
lowerback 18.3742 0.281593 7.70054
upperback 0.548258 2.26125 6.54004
thorax -9.73168 0.723647 2.23792
lowerneck -17.9721 -5.1159 -5.29926
upperneck 16.3321 -5.95868 1.61297
head 8.23626 -3.0059 0.66187
rclavicle -2.04003e-014 -5.08889e-014
rhumerus -38.0253 1.04667 -63.6038
rradius 73.3698
rwrist -7.42771
rhand -31.6301 9.5153
rfingers 7.12502
rthumb -4.89159 -20.4082
lclavicle -2.04003e-014 -5.08889e-014
lhumerus -53.692 -7.44495 96.2698
lradius 88.7498
lwrist -1.85149
lhand -21.3116 -16.7329
lfingers 7.12502
lthumb 5.07348 13.1864
rfemur -26.4138 -15.7157 23.2374
rtibia 73.1303
rfoot -16.2649 -16.5474
rtoes -49.3665
lfemur -53.9716 -3.33756 -16.0878
ltibia 87.8363
lfoot -19.1764 -5.24504
ltoes -4.59549
136
root -18.838 15.6397 -23.5133 -217.48 -65.1336 -139.752
lowerback 18.4147 0.481143 7.72495
upperback 0.642598 2.51773 6.39392
thorax -9.63589 0.846113 1.99147
lowerneck -17.9718 -5.28265 -5.40593
upperneck 16.0483 -6.17364 1.74501
head 8.15626 -3.09742 0.698607
rclavicle -2.1096e-014 4.25399e-014
rhumerus -37.8025 1.47672 -63.4855
rradius 75.4634
rwrist -6.99299
rhand -31.5129 10.2017
rfingers 7.12502
rthumb -4.77844 -19.7244
lclavicle -2.1096e-014 4.25399e-014
lhumerus -54.374 -7.4297 95.8219
lradius 89.3352
lwrist -1.10587
lhand -21.1253 -16.4143
lfingers 7.12502
lthumb 5.25335 13.5006
rfemur -25.3314 -15.4125 22.9048
rtibia 73.8028
rfoot -14.4311 -15.3616
rtoes -49.5395
lfemur -54.8226 -3.75844 -16.7103
ltibia 82.4668
lfoot -17.8153 -5.49905
ltoes -4.26434
137
root -19.1862 15.7211 -23.7369 -217.102 -65.0612 -140.453
lowerback 18.5193 0.685553 7.67564
upperback 0.773686 2.76728 6.23828
thorax -9.53624 0.96881 1.77746
lowerneck -17.9524 -5.41717 -5.46975
upperneck 15.8314 -6.3493 1.82466
head 8.09131 -3.17434 0.715802
rclavicle -5.45664e-014 9.24349e-015
rhumerus -37.6431 1.90211 -63.3617
rradius 77.4545
rwrist -6.57535
rhand -31.4199 10.8574
rfingers 7.12502
rthumb -4.68863 -19.0707
lclavicle -5.45664e-014 9.24349e-015
lhumerus -54.9945 -7.29049 95.3558
lradius 89.8583
lwrist 0.0757929
lhand -20.9538 -16.0148
lfingers 7.12502
lthumb 5.41899 13.8959
rfemur -24.2824 -15.0692 22.4227
rtibia 74.5248
rfoot -12.1267 -13.894
rtoes -49.2817
lfemur -55.1045 -4.12287 -17.2198
ltibia 76.8214
lfoot -15.8811 -5.99905
ltoes -4.10404
138
root -19.5401 15.7986 -23.9592 -216.63 -64.9412 -141.37
lowerback 18.6532 0.88939 7.55265
upperback 0.932048 2.99992 6.08092
thorax -9.42542 1.08714 1.60708
lowerneck -17.9211 -5.50434 -5.48517
upperneck 15.711 -6.46797 1.85575
head 8.05148 -3.22754 0.71565
rclavicle -1.78906e-014 2.50469e-014
rhumerus -37.5328 2.33214 -63.2566
rradius 79.319
rwrist -6.29494
rhand -31.3488 11.4347
rfingers 7.12502
rthumb -4.61994 -18.4949
lclavicle -1.78906e-014 2.50469e-014
lhumerus -55.5746 -7.04296 94.8806
lradius 90.3062
lwrist 1.42284
lhand -20.8239 -15.6089
lfingers 7.12502
lthumb 5.5444 14.2986
rfemur -23.2897 -14.6728 21.8239
rtibia 75.3009
rfoot -9.44695 -12.1905
rtoes -48.3909
lfemur -54.9004 -4.44262 -17.6032
ltibia 71.0567
lfoot -13.3827 -6.67395
ltoes -4.00458
139
root -19.9 15.8695 -24.182 -216.077 -64.7873 -142.458
lowerback 18.77 1.09002 7.34426
upperback 1.10261 3.20708 5.93036
thorax -9.29674 1.19789 1.4991
lowerneck -17.8813 -5.54651 -5.47183
upperneck 15.7176 -6.53231 1.85687
head 8.04879 -3.25758 0.706591
rclavicle -4.35587e-014 4.78077e-014
rhumerus -37.4665 2.76637 -63.1797
rradius 81.0432
rwrist -6.2244
rhand -31.3025 11.8737
rfingers 7.12502
rthumb -4.57526 -18.0569
lclavicle -4.35587e-014 4.78077e-014
lhumerus -56.1246 -6.7029 94.4017
lradius 90.6531
lwrist 2.61117
lhand -20.6858 -15.2816
lfingers 7.12502
lthumb 5.67769 14.6224
rfemur -22.3692 -14.2285 21.1379
rtibia 76.1311
rfoot -6.50468 -10.4054
rtoes -46.839
lfemur -54.3059 -4.69579 -17.8938
ltibia 65.3296
lfoot -10.395 -7.42975
ltoes -4.23948
140
root -20.2662 15.9307 -24.407 -215.468 -64.6016 -143.657
lowerback 18.8258 1.28495 7.04952
upperback 1.2721 3.3833 5.79675
thorax -9.14269 1.29875 1.46765
lowerneck -17.8303 -5.54137 -5.42652
upperneck 15.8561 -6.53991 1.82517
head 8.08393 -3.26345 0.687432
rclavicle 8.46201e-014 -6.29153e-014
rhumerus -37.4342 3.20592 -63.1466
rradius 82.6187
rwrist -6.40594
rhand -31.269 12.1435
rfingers 7.12502
rthumb -4.54289 -17.7877
lclavicle 8.46201e-014 -6.29153e-014
lhumerus -56.6608 -6.32155 93.9481
lradius 90.9069
lwrist 3.52873
lhand -20.6149 -15.0189
lfingers 7.12502
lthumb 5.74613 14.8832
rfemur -21.5362 -13.7421 20.4133
rtibia 77.0185
rfoot -3.55278 -8.81658
rtoes -44.8309
lfemur -53.4319 -4.90606 -18.0892
ltibia 59.8295
lfoot -7.06417 -8.12953
ltoes -4.53991
141
root -20.6383 15.9805 -24.635 -214.841 -64.3874 -144.896
lowerback 18.7908 1.46604 6.68604
upperback 1.42593 3.52168 5.68454
thorax -8.9635 1.38554 1.51061
lowerneck -17.771 -5.48978 -5.36817
upperneck 16.1318 -6.49166 1.78392
head 8.16097 -3.24445 0.668576
rclavicle -7.76503e-015 -3.94588e-014
rhumerus -37.4318 3.64963 -63.1742
rradius 84.0446
rwrist -6.7945
rhand -31.2278 12.2216
rfingers 7.12502
rthumb -4.50315 -17.7105
lclavicle -7.76503e-015 -3.94588e-014
lhumerus -57.1897 -5.93301 93.5289
lradius 91.0712
lwrist 4.092
lhand -20.5794 -14.8533
lfingers 7.12502
lthumb 5.78048 15.0479
rfemur -20.8019 -13.2251 19.698
rtibia 77.9636
rfoot -0.985307 -7.55208
rtoes -42.5974
lfemur -52.3835 -5.12028 -18.1716
ltibia 54.7544
lfoot -3.55389 -8.6045
ltoes -4.49671
